<?xml version="1.0" standalone="no"?>
<!DOCTYPE svg PUBLIC "-//W3C//DTD SVG 20010904//EN"
 "http://www.w3.org/TR/2001/REC-SVG-20010904/DTD/svg10.dtd">
<svg version="1.0" xmlns="http://www.w3.org/2000/svg"
 width="512.000000pt" height="512.000000pt" viewBox="0 0 512.000000 512.000000"
 preserveAspectRatio="xMidYMid meet">

<g transform="translate(0.000000,512.000000) scale(0.100000,-0.100000)"
fill="#FF0000" stroke="none">
<path d="M2190 5104 c-122 -32 -224 -138 -256 -264 -33 -131 3 -250 105 -350
52 -51 58 -60 45 -71 -34 -28 -105 -140 -131 -205 -24 -64 -27 -83 -31 -249
-5 -208 7 -276 63 -384 35 -67 126 -168 178 -199 15 -9 27 -19 27 -22 0 -3
-15 -21 -34 -39 l-34 -33 -210 43 -211 42 -165 248 -166 249 0 364 0 365 -99
148 c-54 81 -108 157 -120 168 -33 29 -88 25 -117 -9 -43 -49 -34 -79 66 -230
l90 -136 0 -365 0 -364 189 -284 c104 -156 200 -293 214 -304 18 -14 83 -31
214 -57 246 -49 223 -40 211 -84 -6 -20 -8 -63 -4 -94 l6 -57 -293 -3 -292 -3
-228 -137 -228 -138 -185 0 -186 0 -29 -29 c-39 -40 -39 -82 0 -122 l29 -29
213 0 213 0 226 135 225 135 318 0 318 1 38 -34 c21 -19 60 -47 85 -62 47 -27
47 -28 44 -77 l-3 -50 -490 -312 c-328 -209 -494 -320 -502 -336 -6 -14 -72
-348 -146 -744 l-135 -719 -135 -136 c-80 -79 -139 -147 -142 -162 -14 -59 51
-120 111 -105 27 7 276 243 317 300 16 23 50 183 156 749 l136 721 413 263
c228 145 416 263 418 263 2 0 4 -56 4 -125 l0 -125 -52 -26 c-208 -104 -348
-287 -394 -515 -13 -64 -15 -131 -12 -361 4 -275 5 -285 31 -363 39 -116 91
-199 187 -295 144 -145 304 -211 510 -211 206 0 366 66 510 211 96 96 148 179
187 295 26 78 27 88 31 363 3 230 1 297 -12 361 -46 228 -186 411 -393 515
l-53 26 0 125 c0 69 2 125 4 125 2 0 190 -118 418 -263 l413 -263 136 -721
c106 -566 140 -726 156 -749 41 -57 290 -293 317 -300 60 -15 125 46 111 105
-3 15 -62 83 -142 162 l-135 136 -135 719 c-74 396 -140 730 -146 744 -8 16
-174 127 -502 336 l-490 312 -3 50 c-3 49 -3 50 44 77 25 15 64 43 85 62 l38
34 318 -1 318 0 225 -135 226 -135 213 0 213 0 29 29 c20 20 29 39 29 61 0 22
-9 41 -29 61 l-29 29 -186 0 -185 0 -228 137 -228 138 -292 3 -293 3 6 57 c4
31 2 74 -4 94 -12 44 -35 35 211 84 131 26 196 43 214 57 14 11 110 148 214
304 l189 284 0 364 0 365 90 136 c100 151 109 181 66 230 -29 34 -84 38 -117
9 -12 -11 -66 -87 -120 -168 l-99 -148 0 -365 0 -364 -166 -249 -165 -248
-211 -42 -210 -43 -34 33 c-19 18 -34 36 -34 39 0 3 12 13 28 22 51 31 142
132 177 199 56 108 68 176 63 384 -4 166 -7 185 -31 249 -26 65 -97 177 -131
205 -13 11 -7 20 45 71 102 100 138 220 105 350 -39 151 -152 251 -313 276
-89 14 -149 -47 -119 -120 17 -40 34 -51 98 -60 190 -28 224 -271 49 -349 -42
-18 -67 -20 -340 -19 -331 0 -354 4 -410 68 -98 111 -32 278 117 300 63 9 81
20 98 59 26 63 -21 126 -93 124 -15 0 -53 -7 -83 -15z"/>
</g>
</svg>
